# xmcd
#
# Track frame offsets: 
#        180
#        12992
#        49976
#        65704
#        94286
#        118326
#        139167
#        158911
#
# Disc length: 2485 seconds
#
# Revision: 0
# Processed by: cddbd v1.5.1PL2 Copyright (c) Steve Scherf et al.
# Submitted via: ExactAudioCopy v0.95b4
#
DISCID=7609b308
DTITLE=Burning Plague - Burning Plague
DYEAR=1970
DGENRE=Blues
TTITLE0=A 38
TTITLE1=She Went Riding
TTITLE2=Follow That Road
TTITLE3=Hairy Sea
TTITLE4=Night Travellin' Man
TTITLE5=First Time I Met You
TTITLE6=Life Is Nonsense
TTITLE7=Will I Find Somebody
EXTD=
EXTT0=
EXTT1=
EXTT2=
EXTT3=
EXTT4=
EXTT5=
EXTT6=
EXTT7=
PLAYORDER=
